<mxfile host="app.diagrams.net" modified="2023-10-01T16:45:55.780Z" agent="Mozilla/5.0 (Windows NT 10.0; Win64; x64) AppleWebKit/537.36 (KHTML, like Gecko) Chrome/117.0.0.0 Safari/537.36" version="22.0.0" etag="JUuE61WKsBP1wW7Va2ap" type="github">
  <diagram name="Trang-1" id="xtSivAnrwm2Lds_mAkhV">
    <mxGraphModel>
      <root>
        <mxCell id="0" />
        <mxCell id="1" parent="0" />
      </root>
    </mxGraphModel>
  </diagram>
</mxfile>
